<svg xmlns="http://www.w3.org/2000/svg" width="251.144" height="253.709" viewBox="0 0 251.14448 253.70908"><defs/><rect width="251.144" height="253.709" fill="#fcf9f3" paint-order="markers fill stroke" ry="22.678"/><path fill="#51392c" d="M173.29 122.915c.922 0 1.746.369 2.354.976l.043.055c.575.596.922 1.41.922 2.3 0 .921-.369 1.746-.976 2.353a3.329 3.329 0 01-2.354.976h-30.525a3.303 3.303 0 01-2.353-.976 3.329 3.329 0 01-.977-2.354c0-.91.37-1.746.977-2.343a3.277 3.277 0 012.343-.976h30.546zm-91.834-12.67l-.043-.054a3.285 3.285 0 01-.923-2.3c0-.846.326-1.692.977-2.342a3.31 3.31 0 012.354-.977 3.31 3.31 0 012.354.977l8.45 8.45 8.45-8.45a3.328 3.328 0 014.708 0 3.328 3.328 0 010 4.708l-8.45 8.45 8.406 8.428c.651.65.976 1.497.976 2.354a3.31 3.31 0 01-.976 2.354 3.328 3.328 0 01-4.708 0l-8.45-8.45-8.45 8.45a3.31 3.31 0 01-2.354.976 3.31 3.31 0 01-2.354-.976l-.043-.055a3.285 3.285 0 01-.922-2.3c0-.845.325-1.691.976-2.342l8.45-8.45zm110.763-21.922V141.8c0 1.638-.326 3.211-.922 4.654a12.314 12.314 0 01-2.647 3.96l-.044.043a12.196 12.196 0 01-3.905 2.603 12.072 12.072 0 01-4.653.922H71.108c-1.638 0-3.211-.325-4.654-.922a12.433 12.433 0 01-3.96-2.647 12.028 12.028 0 01-2.646-3.959 12.249 12.249 0 01-.922-4.664V34.845c0-1.638.325-3.21.922-4.653a12.297 12.297 0 012.658-3.949l.043-.043a12.196 12.196 0 013.905-2.604 11.96 11.96 0 014.653-.932h108.93c1.638 0 3.21.325 4.653.922a12.433 12.433 0 013.96 2.646 12.028 12.028 0 012.647 3.96c.596 1.432.922 3.004.922 4.653zm-6.65 53.467V91.642h-56.677v55.69h51.145a5.5 5.5 0 003.905-1.638 5.483 5.483 0 001.627-3.904zm0-56.797V34.845a5.5 5.5 0 00-1.638-3.905 5.673 5.673 0 00-1.8-1.215 5.44 5.44 0 00-2.105-.423h-51.134v55.69zM65.575 34.845v50.148h56.678v-55.68H71.107c-.748 0-1.464.152-2.104.423a5.307 5.307 0 00-1.8 1.204 5.483 5.483 0 00-1.628 3.905zm0 56.797v50.148a5.5 5.5 0 001.638 3.905c.51.51 1.128.933 1.801 1.215a5.44 5.44 0 002.104.423h51.146v-55.69zm25.698-50.625c0-.922.369-1.746.976-2.353a3.329 3.329 0 015.684 2.353V52.96h11.943c.922 0 1.746.37 2.354.977a3.329 3.329 0 01-2.354 5.684H97.922v11.943c0 .922-.369 1.746-.976 2.354a3.329 3.329 0 01-5.684-2.354V59.61H79.33a3.303 3.303 0 01-2.354-.976 3.329 3.329 0 012.354-5.684h11.943zM173.29 52.96c.922 0 1.746.37 2.354.977a3.329 3.329 0 01-2.354 5.684h-30.536a3.303 3.303 0 01-2.353-.977 3.329 3.329 0 012.353-5.684zm0 55.42c.922 0 1.746.368 2.354.976l.043.054c.575.597.922 1.41.922 2.3 0 .922-.369 1.746-.976 2.354a3.329 3.329 0 01-2.354.976h-30.525a3.303 3.303 0 01-2.353-.976 3.329 3.329 0 01-.977-2.354c0-.911.37-1.747.977-2.343a3.277 3.277 0 012.343-.976h30.546z"/><g fill="#51392c" aria-label="MATEMAKS" font-family="roboto" font-size="40" font-weight="400" letter-spacing=".76" style="line-height:1.25;-inkscape-font-specification:roboto" word-spacing="0"><path d="M22.678 176.314l7.305 20.625 7.265-20.625h7.695v28.438h-5.878v-7.774l.586-13.418-7.676 21.192H27.95l-7.656-21.172.586 13.398v7.774h-5.86v-28.438zM67.305 198.892H57.032l-1.954 5.86h-6.23l10.586-28.438h5.43l10.644 28.438h-6.23zm-8.691-4.746h7.109l-3.574-10.644zM98.026 181.06h-8.711v23.692h-5.86V181.06h-8.593v-4.746h23.164zM119.255 192.427h-11.25v7.618h13.203v4.707h-19.063v-28.438h19.024v4.746h-13.164v6.777h11.25zM133.062 176.314l7.304 20.625 7.266-20.625h7.695v28.438h-5.879v-7.774l.586-13.418-7.676 21.192h-4.023l-7.656-21.172.586 13.398v7.774h-5.86v-28.438zM177.689 198.892h-10.274l-1.953 5.86h-6.23l10.586-28.438h5.43l10.644 28.438h-6.23zm-8.692-4.746h7.11l-3.574-10.644zM198.253 193.345l-3.046 3.282v8.125h-5.86v-28.438h5.86v12.89l2.578-3.534 7.246-9.356h7.207l-10.098 12.637 10.39 15.8h-6.972zM230.244 197.29q0-1.66-1.172-2.538-1.172-.899-4.219-1.875-3.047-.997-4.824-1.954-4.844-2.617-4.844-7.05 0-2.305 1.29-4.102 1.308-1.816 3.73-2.832 2.441-1.016 5.469-1.016 3.047 0 5.43 1.114 2.382 1.093 3.69 3.105 1.329 2.012 1.329 4.57h-5.86q0-1.953-1.23-3.027-1.23-1.094-3.457-1.094-2.148 0-3.34.918-1.191.899-1.191 2.383 0 1.387 1.386 2.324 1.407.938 4.122 1.758 5 1.504 7.285 3.73 2.285 2.227 2.285 5.548 0 3.69-2.793 5.8-2.793 2.09-7.52 2.09-3.28 0-5.976-1.191-2.696-1.211-4.121-3.301-1.407-2.09-1.407-4.844h5.88q0 4.707 5.624 4.707 2.09 0 3.262-.84 1.172-.859 1.172-2.382z"/></g><g fill="#51392c" stroke-width=".473" aria-label="EXTENSION" font-family="roboto" font-size="18.934" font-weight="400" letter-spacing=".36" style="line-height:1.25;-inkscape-font-specification:roboto" word-spacing="0"><path d="M82.418 225.027h-5.325v3.605h6.25v2.229h-9.024v-13.462h9.005v2.247h-6.231v3.208h5.325zM90.147 222.04l2.523-4.64h3.19l-3.92 6.674 4.022 6.787h-3.227l-2.588-4.716-2.59 4.716h-3.226l4.022-6.787-3.92-6.675h3.19zM107.841 219.646h-4.123v11.215h-2.774v-11.215h-4.068v-2.247h10.965zM117.89 225.027h-5.325v3.605h6.25v2.229h-9.024v-13.462h9.005v2.247h-6.231v3.208h5.325zM131.748 230.86h-2.773l-5.4-8.856v8.857h-2.773v-13.462h2.773l5.409 8.876v-8.876h2.764zM141.529 227.329q0-.786-.555-1.202-.555-.425-1.997-.888-1.442-.471-2.283-.924-2.293-1.239-2.293-3.338 0-1.09.61-1.941.62-.86 1.766-1.34 1.155-.482 2.588-.482 1.443 0 2.57.527 1.129.518 1.748 1.47.629.953.629 2.164h-2.774q0-.925-.582-1.433-.583-.518-1.637-.518-1.017 0-1.58.435-.565.425-.565 1.128 0 .656.657 1.1.665.444 1.95.832 2.367.712 3.449 1.766 1.082 1.054 1.082 2.625 0 1.748-1.322 2.746-1.322.99-3.56.99-1.553 0-2.829-.564-1.276-.574-1.95-1.563-.666-.99-.666-2.293h2.783q0 2.228 2.662 2.228.99 0 1.544-.397.555-.407.555-1.128zM149.507 230.86h-2.774V217.4h2.774zM163.485 224.435q0 1.988-.703 3.486-.702 1.497-2.015 2.31-1.304.814-2.996.814-1.673 0-2.986-.804-1.313-.804-2.034-2.293-.721-1.497-.73-3.439v-.666q0-1.987.712-3.494.72-1.517 2.024-2.321 1.313-.814 2.996-.814t2.986.814q1.313.804 2.025 2.32.721 1.508.721 3.486zm-2.81-.61q0-2.117-.759-3.218-.758-1.1-2.163-1.1-1.396 0-2.154 1.091-.758 1.082-.768 3.18v.657q0 2.062.758 3.199.759 1.137 2.182 1.137 1.396 0 2.145-1.09.75-1.101.758-3.2zM176.825 230.86h-2.773l-5.4-8.856v8.857h-2.773v-13.462h2.773l5.409 8.876v-8.876h2.764z"/></g></svg>